<svg xmlns="http://www.w3.org/2000/svg" style="display: none;">

    <symbol id="icon-menu" viewBox="0 0 448 512">
    <path d="M0 96C0 78.3 14.3 64 32 64H416c17.7 0 32 14.3 32 32s-14.3 32-32 32H32C14.3 128 0 113.7 0 96zM0 256c0-17.7 14.3-32 32-32H416c17.7 0 32 14.3 32 32s-14.3 32-32 32H32c-17.7 0-32-14.3-32-32zM448 416c0 17.7-14.3 32-32 32H32c-17.7 0-32-14.3-32-32s14.3-32 32-32H416c17.7 0 32 14.3 32 32z"/>
    </symbol>

    <symbol id="icon-close" viewBox="0 0 384 512">
    <path d="M342.6 150.6c12.5-12.5 12.5-32.8 0-45.3s-32.8-12.5-45.3 0L192 210.7 86.6 105.4c-12.5-12.5-32.8-12.5-45.3 0s-12.5 32.8 0 45.3L146.7 256 41.4 361.4c-12.5 12.5-12.5 32.8 0 45.3s32.8 12.5 45.3 0L192 301.3 297.4 406.6c12.5 12.5 32.8 12.5 45.3 0s12.5-32.8 0-45.3L237.3 256 342.6 150.6z"/>
    </symbol>

    <symbol id="icon-mail" viewBox="0 0 24 18" >
    <path d="M2 1.99999L10.6621 9.79585C11.4227 10.4804 12.5773 10.4804 13.3379 9.79585L22 1.99999M3.5 1.35999H20.5C21.6046 1.35999 22.5 2.25542 22.5 3.35999V14.63C22.5 15.7346 21.6046 16.63 20.5 16.63H3.5C2.39543 16.63 1.5 15.7346 1.5 14.63V3.35999C1.5 2.25542 2.39543 1.35999 3.5 1.35999Z" fill='none' stroke-width="1.5" stroke-miterlimit="10"/>
    </symbol>

    <symbol id="icon-phone" viewBox="0 0 23 23">
    <path d="M19.64 20.25C17.1 22.8 11.26 21.08 6.64 16.41C2.02 11.74 0.2 5.90001 2.75 3.36001L4.11579 1.9893C4.89643 1.20586 6.16471 1.20472 6.94676 1.98676L9.48579 4.52579C10.2668 5.30684 10.2668 6.57317 9.48579 7.35422L8.9 7.94001C8.49816 8.34787 8.2729 8.89745 8.2729 9.47001C8.2729 10.0426 8.49816 10.5921 8.9 11L12 14.1C12.4083 14.5049 12.96 14.732 13.535 14.732C14.11 14.732 14.6617 14.5049 15.07 14.1L15.6558 13.5142C16.4368 12.7332 17.7032 12.7332 18.4842 13.5142L21.0207 16.0507C21.8037 16.8337 21.8015 18.104 21.0156 18.8842L19.64 20.25Z" fill='none' stroke-width="1.5" stroke-miterlimit="10"/>
    </symbol>

    <symbol id='icon-hands-holding-child' viewBox="0 0 32 26" fill="none">
    <path d="M16 1C16.4973 1 16.9742 1.19754 17.3258 1.54917C17.6775 1.90081 17.875 2.37772 17.875 2.875C17.875 3.37228 17.6775 3.84919 17.3258 4.20083C16.9742 4.55246 16.4973 4.75 16 4.75C15.5027 4.75 15.0258 4.55246 14.6742 4.20083C14.3225 3.84919 14.125 3.37228 14.125 2.875C14.125 2.37772 14.3225 1.90081 14.6742 1.54917C15.0258 1.19754 15.5027 1 16 1ZM18.0953 8.70156L18.6156 12.8594C18.6906 13.4781 18.2547 14.0359 17.6406 14.1156C17.0266 14.1953 16.4641 13.7547 16.3844 13.1406L16.1781 11.5H15.8219L15.6156 13.1406C15.5406 13.7594 14.9781 14.1953 14.3594 14.1156C13.7406 14.0359 13.3047 13.4781 13.3844 12.8594L13.9047 8.69687L12.9766 9.48438C12.5031 9.8875 11.7906 9.82656 11.3922 9.35312C10.9937 8.87969 11.05 8.16719 11.5234 7.76875L12.8312 6.6625C13.7172 5.9125 14.8422 5.5 16 5.5C17.1578 5.5 18.2828 5.9125 19.1688 6.65781L20.4766 7.76406C20.95 8.16719 21.0109 8.875 20.6078 9.34844C20.2047 9.82188 19.4969 9.88281 19.0234 9.47969L18.0953 8.69687V8.70156ZM2.875 4C3.91094 4 4.75 4.83906 4.75 5.875V7.75V11.5V13.3844C4.75 14.1813 5.06406 14.9453 5.62656 15.5078L8.02188 17.9031C8.41094 18.2922 9.02031 18.3531 9.475 18.0484C10.0797 17.6453 10.1641 16.7875 9.64844 16.2766L8.93594 15.5641L7.43594 14.0641C6.85 13.4781 6.85 12.5266 7.43594 11.9406C8.02188 11.3547 8.97344 11.3547 9.55938 11.9406L11.0594 13.4406L11.7719 14.1531L12.9578 15.3391C13.9422 16.3234 14.4953 17.6594 14.4953 19.0516V22.75C14.4953 23.9922 13.4875 25 12.2453 25H9.12344C8.32656 25 7.5625 24.6859 7 24.1234L2.31719 19.4406C1.47344 18.5969 1 17.4531 1 16.2578V11.5V8.5V5.875C1 4.83906 1.83906 4 2.875 4ZM29.125 4C30.1609 4 31 4.83906 31 5.875V8.5V11.5V16.2578C31 17.4531 30.5266 18.5969 29.6828 19.4406L25 24.1234C24.4375 24.6859 23.6734 25 22.8766 25H19.75C18.5078 25 17.5 23.9922 17.5 22.75V19.0516C17.5 17.6594 18.0531 16.3234 19.0375 15.3391L20.2234 14.1531L20.9359 13.4406L22.4359 11.9406C23.0219 11.3547 23.9734 11.3547 24.5594 11.9406C25.1453 12.5266 25.1453 13.4781 24.5594 14.0641L23.0594 15.5641L22.3469 16.2766C21.8312 16.7922 21.9156 17.6453 22.5203 18.0484C22.975 18.3531 23.5844 18.2922 23.9734 17.9031L26.3688 15.5078C26.9313 14.9453 27.2453 14.1813 27.2453 13.3844V11.5V7.75V5.875C27.2453 4.83906 28.0844 4 29.1203 4H29.125Z" stroke-width="1.5" stroke-miterlimit="10"/>
    </symbol>

    <symbol id='icon-shield-with-heart' viewBox="0 0 25 26" fill="none">
    <path d="M12.9435 1.13668C12.7455 1.04713 12.5334 1 12.3119 1C12.0904 1 11.8783 1.04713 11.6803 1.13668L2.80521 4.90259C1.76829 5.34093 0.995308 6.36371 1.00002 7.59859C1.02359 12.2742 2.9466 20.8288 11.0676 24.7172C11.8547 25.0943 12.7691 25.0943 13.5562 24.7172C21.6772 20.8288 23.6002 12.2742 23.6237 7.59859C23.6285 6.36371 22.8555 5.34093 21.8186 4.90259L12.9435 1.13668ZM7.03301 11.4305C7.03301 9.83739 8.32445 8.54124 9.92225 8.54124C10.6858 8.54124 11.4211 8.8476 11.9631 9.38492L12.3119 9.7337L12.6607 9.38492C13.2027 8.84289 13.938 8.54124 14.7015 8.54124C16.2946 8.54124 17.5908 9.83268 17.5908 11.4305C17.5908 12.194 17.2844 12.9293 16.7471 13.4713L12.8492 17.3692C12.557 17.6614 12.0762 17.6614 11.784 17.3692L7.88612 13.4713C7.34409 12.9293 7.04244 12.194 7.04244 11.4305H7.03301Z" stroke-width="1.5" stroke-miterlimit="10"/>
    </symbol>

    <symbol id="icon-caret" viewBox="0 0 18 12" >
    <path d="M7.86992 10.1312C8.49466 10.7559 9.50923 10.7559 10.134 10.1312L16.5313 3.73386C16.9911 3.27405 17.1261 2.58934 16.8762 1.98959C16.6263 1.38984 16.0465 1 15.3968 1L2.60212 1.005C1.95738 1.005 1.37263 1.39484 1.12273 1.99459C0.872837 2.59434 1.01278 3.27905 1.46759 3.73886L7.86492 10.1362L7.86992 10.1312Z" stroke-width="1.5" stroke-miterlimit="10" />
    </symbol>

    <symbol id="icon-minimize" viewBox="0 0 26 26" fill="none">
    <path d="M22.3708 11.5H15.6221C14.9988 11.5 14.4974 10.9984 14.4974 10.375V3.625C14.4974 3.17031 14.7692 2.75781 15.191 2.58437C15.6128 2.41094 16.0955 2.50469 16.4189 2.82812L18.2935 4.70312L21.7288 1.26719C21.9022 1.09375 22.1318 1 22.3708 1C22.6098 1 22.8395 1.09375 23.0129 1.26719L24.7329 2.9875C24.9016 3.15625 24.9953 3.38594 24.9953 3.625C24.9953 3.86406 24.9016 4.09375 24.7282 4.26719L21.2929 7.70312L23.1675 9.57812C23.4909 9.90156 23.5847 10.3844 23.4112 10.8062C23.2378 11.2281 22.8254 11.5 22.3708 11.5ZM22.3708 14.5C22.8254 14.5 23.2378 14.7719 23.4112 15.1937C23.5847 15.6156 23.4909 16.0984 23.1675 16.4219L21.2929 18.2969L24.7329 21.7375C24.9016 21.9062 25 22.1359 25 22.3797C25 22.6234 24.9063 22.8484 24.7329 23.0219L23.0129 24.7422C22.8395 24.9062 22.6098 25 22.3708 25C22.1318 25 21.9022 24.9062 21.7288 24.7328L18.2935 21.2969L16.4189 23.1719C16.0955 23.4953 15.6128 23.5891 15.191 23.4156C14.7692 23.2422 14.4974 22.8297 14.4974 22.375V15.625C14.4974 15.0016 14.9988 14.5 15.6221 14.5H22.3708ZM10.3732 14.5C10.9965 14.5 11.4979 15.0016 11.4979 15.625V22.375C11.4979 22.8297 11.2261 23.2422 10.8043 23.4156C10.3825 23.5891 9.89982 23.4953 9.57645 23.1719L7.70182 21.2969L4.26655 24.7328C4.09315 24.9062 3.8635 25 3.62449 25C3.38547 25 3.15583 24.9062 2.98243 24.7328L1.26714 23.0172C1.09373 22.8438 1 22.6141 1 22.375C1 22.1359 1.09373 21.9062 1.26714 21.7328L4.7024 18.2969L2.82777 16.4219C2.50439 16.0984 2.41066 15.6156 2.58407 15.1937C2.75747 14.7719 3.16989 14.5 3.62449 14.5H10.3732ZM3.62449 11.5C3.16989 11.5 2.75747 11.2281 2.58407 10.8062C2.41066 10.3844 2.50439 9.90156 2.82777 9.57812L4.7024 7.70312L1.26714 4.26719C1.09373 4.09375 1 3.86406 1 3.625C1 3.38594 1.09373 3.15625 1.26714 2.98281L2.98243 1.26719C3.15583 1.09375 3.38547 1 3.62449 1C3.8635 1 4.09315 1.09375 4.26655 1.26719L7.70182 4.70312L9.57645 2.82812C9.89982 2.50469 10.3825 2.41094 10.8043 2.58437C11.2261 2.75781 11.4979 3.17031 11.4979 3.625V10.375C11.4979 10.9984 10.9965 11.5 10.3732 11.5H3.62449Z" stroke-width="1.5" stroke-miterlimit="10"/>
    </symbol>

    <symbol id="icon-enlarge" viewBox="0 0 26 26" fill="none">
    <path d="M2.71429 1C1.76607 1 1 1.76607 1 2.71429V7.85714C1 8.80536 1.76607 9.57143 2.71429 9.57143C3.6625 9.57143 4.42857 8.80536 4.42857 7.85714V4.42857H7.85714C8.80536 4.42857 9.57143 3.6625 9.57143 2.71429C9.57143 1.76607 8.80536 1 7.85714 1H2.71429ZM4.42857 18.1429C4.42857 17.1946 3.6625 16.4286 2.71429 16.4286C1.76607 16.4286 1 17.1946 1 18.1429V23.2857C1 24.2339 1.76607 25 2.71429 25H7.85714C8.80536 25 9.57143 24.2339 9.57143 23.2857C9.57143 22.3375 8.80536 21.5714 7.85714 21.5714H4.42857V18.1429ZM18.1429 1C17.1946 1 16.4286 1.76607 16.4286 2.71429C16.4286 3.6625 17.1946 4.42857 18.1429 4.42857H21.5714V7.85714C21.5714 8.80536 22.3375 9.57143 23.2857 9.57143C24.2339 9.57143 25 8.80536 25 7.85714V2.71429C25 1.76607 24.2339 1 23.2857 1H18.1429ZM25 18.1429C25 17.1946 24.2339 16.4286 23.2857 16.4286C22.3375 16.4286 21.5714 17.1946 21.5714 18.1429V21.5714H18.1429C17.1946 21.5714 16.4286 22.3375 16.4286 23.2857C16.4286 24.2339 17.1946 25 18.1429 25H23.2857C24.2339 25 25 24.2339 25 23.2857V18.1429Z" stroke-width="1.5" stroke-miterlimit="10"/>
    </symbol>
    
    <symbol id="icon-star" viewBox="0 0 27 26" fill="none">
<path d="M13.3701 1.00055C13.8013 1.00055 14.195 1.24428 14.3825 1.63331L17.5979 8.25625L24.7786 9.31555C25.2004 9.37648 25.552 9.67177 25.6832 10.0796C25.8144 10.4873 25.7066 10.9279 25.4067 11.2279L20.1992 16.3931L21.4273 23.6863C21.4976 24.1082 21.3242 24.5347 20.9726 24.7878C20.6211 25.0409 20.1617 25.069 19.7868 24.8675L13.3654 21.4365L6.95336 24.8628C6.5737 25.0644 6.11436 25.0362 5.76751 24.7831C5.42066 24.53 5.24255 24.1035 5.31286 23.6817L6.54089 16.3885L1.33347 11.2279C1.02881 10.9279 0.925691 10.4826 1.05693 10.0796C1.18817 9.67646 1.53971 9.38117 1.96155 9.31555L9.14226 8.25625L12.3576 1.63331C12.5498 1.24428 12.9388 1.00055 13.3701 1.00055ZM13.3701 4.7034L10.9093 9.77489C10.7453 10.1077 10.4312 10.342 10.0609 10.3983L4.51605 11.2138L8.5423 15.2026C8.8001 15.4604 8.92196 15.826 8.86103 16.1869L7.90954 21.7974L12.8404 19.1632C13.1732 18.9851 13.5716 18.9851 13.8997 19.1632L18.8306 21.7974L17.8838 16.1916C17.8229 15.8307 17.94 15.4651 18.2025 15.2073L22.2288 11.2185L16.6839 10.3983C16.3183 10.342 15.9996 10.1124 15.8355 9.77489L13.3701 4.7034Z"/>
    </symbol>

    <symbol id='icon-custom-divider' fill="none">
    <path d="M0 0H48V1H0V0Z" fill="#1E4F39"/>
    <path d="M0 1H48V2H0V1Z" fill="#5DF7AF"/>
    <path d="M3 1L0 2V0L3 1Z" fill="#1E4F39"/>
    <path d="M45 1L48 2V0L45 1Z" fill="#5DF7AF"/>
    </symbol>
</svg>